{"title":"Drive Angry (2011) DVDRip XviD-MAX","uid":6392770,"size":1677037948,"categoryP":"video","categoryS":"movies","magnet":"?xt=urn:btih:a1de6fc4e3e30750734c114f21a57ebda29c1438&amp;dn=Drive+Angry+%282011%29+DVDRip+XviD-MAX&amp;tr=udp%3A%2F%2Ftracker.openbittorrent.com%3A80&amp;tr=udp%3A%2F%2Fopen.demonii.com%3A1337&amp;tr=udp%3A%2F%2Ftracker.coppersurfer.tk%3A6969&amp;tr=udp%3A%2F%2Fexodus.desync.com%3A6969","seeders":21,"leechers":10,"uploader":"extremezone","files":-1,"time":1305407809,"description":" &lt;a href=&quot;http://leetleech.org/images/77702060570006596097.jpg&quot; rel=&quot;nofollow&quot; target=&quot;_NEW&quot;&gt;http://leetleech.org/images/77702060570006596097.jpg&lt;/a&gt;\n\nScreens:\n &lt;a href=&quot;\nhttp://leetleech.org/images/21320216282713287500.jpg&quot; rel=&quot;nofollow&quot; target=&quot;_NEW&quot;&gt;\nhttp://leetleech.org/images/21320216282713287500.jpg&lt;/a&gt;\n &lt;a href=&quot;\nhttp://leetleech.org/images/06103326608836809439.jpg&quot; rel=&quot;nofollow&quot; target=&quot;_NEW&quot;&gt;\nhttp://leetleech.org/images/06103326608836809439.jpg&lt;/a&gt;\n &lt;a href=&quot;\nhttp://leetleech.org/images/31438609335214534705.jpg&quot; rel=&quot;nofollow&quot; target=&quot;_NEW&quot;&gt;\nhttp://leetleech.org/images/31438609335214534705.jpg&lt;/a&gt;\n &lt;a href=&quot;\nhttp://leetleech.org/images/12813791345369054118.jpg&quot; rel=&quot;nofollow&quot; target=&quot;_NEW&quot;&gt;\nhttp://leetleech.org/images/12813791345369054118.jpg&lt;/a&gt;\n &lt;a href=&quot;\nhttp://leetleech.org/images/71343978571928759687.jpg&quot; rel=&quot;nofollow&quot; target=&quot;_NEW&quot;&gt;\nhttp://leetleech.org/images/71343978571928759687.jpg&lt;/a&gt;\n\nAlternative:\n &lt;a href=&quot;\nhttp://www.postimg.com/image/37000/photo-36268.jpg&quot; rel=&quot;nofollow&quot; target=&quot;_NEW&quot;&gt;\nhttp://www.postimg.com/image/37000/photo-36268.jpg&lt;/a&gt;\n &lt;a href=&quot;\nhttp://www.postimg.com/image/37000/photo-36269.jpg&quot; rel=&quot;nofollow&quot; target=&quot;_NEW&quot;&gt;\nhttp://www.postimg.com/image/37000/photo-36269.jpg&lt;/a&gt;\n &lt;a href=&quot;\nhttp://www.postimg.com/image/37000/photo-36270.jpg&quot; rel=&quot;nofollow&quot; target=&quot;_NEW&quot;&gt;\nhttp://www.postimg.com/image/37000/photo-36270.jpg&lt;/a&gt;\n &lt;a href=&quot;\nhttp://www.postimg.com/image/37000/photo-36271.jpg&quot; rel=&quot;nofollow&quot; target=&quot;_NEW&quot;&gt;\nhttp://www.postimg.com/image/37000/photo-36271.jpg&lt;/a&gt;\n &lt;a href=&quot;\nhttp://www.postimg.com/image/37000/photo-36272.jpg&quot; rel=&quot;nofollow&quot; target=&quot;_NEW&quot;&gt;\nhttp://www.postimg.com/image/37000/photo-36272.jpg&lt;/a&gt;\n\nScreenCaps:\n &lt;a href=&quot;\nhttp://www.postimg.com/image/37000/photo-36273.jpg&quot; rel=&quot;nofollow&quot; target=&quot;_NEW&quot;&gt;\nhttp://www.postimg.com/image/37000/photo-36273.jpg&lt;/a&gt;\n\nDrive Angry (2011) DVDRip XviD-MAX\nFormat                           : AVI\nFormat/Info                      : Audio Video Interleave\nFormat profile                   : OpenDML\nFile size                        : 1.55 GiB\nDuration                         : 1h 44mn\nOverall bit rate                 : 2 126 Kbps\nWriting application              : VirtualDubMod 1.5.10.2 (build 2542/release)\nWriting library                  : VirtualDubMod build 2542/release\nOriginal source form             : MAX TORRENTZ\nCopyright                        : SIGISMUNT\n\nVideo\nID                               : 0\nFormat                           : MPEG-4 Visual\nFormat profile                   : AdvancedSimple@L5\nFormat settings, BVOP            : Yes\nFormat settings, QPel            : No\nFormat settings, GMC             : No warppoints\nFormat settings, Matrix          : Custom\nCodec ID                         : XVID\nCodec ID/Hint                    : XviD\nDuration                         : 1h 44mn\nBit rate                         : 1 737 Kbps\nWidth                            : 720 pixels\nHeight                           : 400 pixels\nDisplay aspect ratio             : 16:9\nFrame rate                       : 23.976 fps\nResolution                       : 24 bits\nColorimetry                      : 4:2:0\nScan type                        : Progressive\nBits/(Pixel*Frame)               : 0.252\nStream size                      : 1.27 GiB (82%)\nWriting library                  : XviD 58\n\nAudio\nID                               : 1\nFormat                           : AC-3\nFormat/Info                      : Audio Coding 3\nCodec ID                         : 2000\nDuration                         : 1h 44mn\nBit rate mode                    : Constant\nBit rate                         : 384 Kbps\nChannel(s)                       : 6 channels\nChannel positions                : Front: L C R, Surround: L R, LFE\nSampling rate                    : 48.0 KHz\nStream size                      : 287 MiB (18%)\nAlignment                        : Aligned on interleaves\nInterleave, duration             : 64 ms (1.53 video frames)\nInterleave, preload duration     : 192 ms\n &lt;a href=&quot;\nhttp://www.imdb.com/title/tt1502404/&quot; rel=&quot;nofollow&quot; target=&quot;_NEW&quot;&gt;\nhttp://www.imdb.com/title/tt1502404/&lt;/a&gt;\n\nSource: Original DVD+AC3 audio (perfect a/v/sync quality , sample included)\nThanks for waiting a better encode than DEFACED 700mb low quality\n\nNote:If you have something to offer as early releases,seedboxes,\nlinks,accounts,etc please contact us on torentz 3xforum ro\nThis torrent is not seedbox supported so please seed it to the MAX\n\nDrive Angry (2011) DVDRip XviD-MAX Torrent Free Download\n &lt;a href=&quot;\nhttp://thepiratebay.se/user/extremezone/0/7&quot; rel=&quot;nofollow&quot; target=&quot;_NEW&quot;&gt;\nhttp://thepiratebay.se/user/extremezone/0/7&lt;/a&gt;\n\nHow To Get Your Maxspeed (uTorrent)\n\nTorrent Client - Preferences - Bandwidth - Number of connections - Set aprox. 500 for each \nTorrent Client - Preferences - BiTorrent - Protocol Encryption - Forced\nBandwidth Allocation - High (Set download/upload limit - Unlimited)\nStop Other Active Torrents - Start downloading and wait for connections.\nEnjoy and Seed for at least 1:1 ratio. Don't forget to say thanks/leave reviews.\nBefore downloading you should check/google search sample &quot;release name&quot;&quot;sample&quot;.\nGreets to all actual/future p2p/scene QUALITY groups and affiliate websites.\nDon't trust IMDb robot or bad ratings,always watch some trailers first.\nIgnore stupid comments/fake/mislabeled/no-DVDrips/CAM/TS/RAR uploads.\nPlease spread this release/torrent to your friends/forums/etc.\nIf you need translation subs visit some subtitles sites.\nReport if you see online streaming or other spam links.\nRecommended movie player VLC PLAYER.","torrent":{"xt":"urn:btih:a1de6fc4e3e30750734c114f21a57ebda29c1438","amp;dn":"Drive+Angry+%282011%29+DVDRip+XviD-MAX","amp;tr":["udp%3A%2F%2Ftracker.openbittorrent.com%3A80","udp%3A%2F%2Fopen.demonii.com%3A1337","udp%3A%2F%2Ftracker.coppersurfer.tk%3A6969","udp%3A%2F%2Fexodus.desync.com%3A6969"],"infoHash":"a1de6fc4e3e30750734c114f21a57ebda29c1438","infoHashBuffer":{"type":"Buffer","data":[161,222,111,196,227,227,7,80,115,76,17,79,33,165,126,189,162,156,20,56]},"announce":[],"urlList":[]}}